<?xml version="1.0" encoding="utf-8"?>
<!-- Generator: Adobe Illustrator 27.0.1, SVG Export Plug-In . SVG Version: 6.00 Build 0)  -->
<svg version="1.1" id="Layer_1" xmlns="http://www.w3.org/2000/svg" xmlns:xlink="http://www.w3.org/1999/xlink" x="0px" y="0px"
	 viewBox="0 0 700 700" style="enable-background:new 0 0 700 700;" xml:space="preserve">
<style type="text/css">
	.st0{fill-rule:evenodd;clip-rule:evenodd;}
</style>
<g>
	<path class="st0" d="M569.2,372c4.2,0,7.5,3.4,7.5,7.6c0,4.2-3.4,7.5-7.5,7.5l-263.9,0c-3.5,0-6.5-2.4-7.4-5.7l-79.3-243.9
		L117,111.1c-4.1-1.1-6.5-5.2-5.4-9.2c1.1-4.1,5.2-6.5,9.2-5.4l105.3,27.3c2.6,0.5,4.8,2.4,5.7,5.1l21.7,66.8h335.1l-45.2,139H298.7
		l12.1,37.3L569.2,372z M501.8,402.9c19,0,34.4,15.4,34.4,34.4s-15.4,34.4-34.4,34.4c-19,0-34.4-15.4-34.4-34.4
		C467.5,418.3,482.9,402.9,501.8,402.9z M364.4,402.9c19,0,34.4,15.4,34.4,34.4s-15.4,34.4-34.4,34.4S330,456.3,330,437.3
		C330,418.3,345.4,402.9,364.4,402.9z"/>
	<g>
		<defs>
			<polyline id="SVGID_1_" points="860.1,648.4 860.1,1348.4 160.1,1348.4 			"/>
		</defs>
		<clipPath id="SVGID_00000083083668799642394200000006269938251308979631_">
			<use xlink:href="#SVGID_1_"  style="overflow:visible;"/>
		</clipPath>
	</g>
	<g>
		<defs>
			<polyline id="SVGID_00000112609254243107964480000011781966753257034923_" points="1007.7,648.4 1007.7,1348.4 307.7,1348.4 			
				"/>
		</defs>
		<clipPath id="SVGID_00000070824691088852878220000005007226200261017755_">
			<use xlink:href="#SVGID_00000112609254243107964480000011781966753257034923_"  style="overflow:visible;"/>
		</clipPath>
	</g>
	<g>
		<defs>
			<polyline id="SVGID_00000018951663728981668730000000699738869285211827_" points="1057.2,648.4 1057.2,1348.4 357.2,1348.4 			
				"/>
		</defs>
		<clipPath id="SVGID_00000039826513139437400950000006587940564711881141_">
			<use xlink:href="#SVGID_00000018951663728981668730000000699738869285211827_"  style="overflow:visible;"/>
		</clipPath>
	</g>
	<g>
		<defs>
			<polyline id="SVGID_00000000908983889510602890000017460947038460904379_" points="1094.6,648.4 1094.6,1348.4 394.6,1348.4 			
				"/>
		</defs>
		<clipPath id="SVGID_00000059280627636989069550000009956916202740441757_">
			<use xlink:href="#SVGID_00000000908983889510602890000017460947038460904379_"  style="overflow:visible;"/>
		</clipPath>
	</g>
	<g>
		<defs>
			<polyline id="SVGID_00000013193324401772823560000011942880407093323407_" points="1135.5,648.4 1135.5,1348.4 435.5,1348.4 			
				"/>
		</defs>
		<clipPath id="SVGID_00000008111929786328515780000014173198921851635353_">
			<use xlink:href="#SVGID_00000013193324401772823560000011942880407093323407_"  style="overflow:visible;"/>
		</clipPath>
	</g>
	<g>
		<defs>
			<polyline id="SVGID_00000031895319650723408660000002834016536684048262_" points="782.8,677.9 782.8,1377.9 82.8,1377.9 			"/>
		</defs>
		<clipPath id="SVGID_00000178926332188053795840000014313964028233812920_">
			<use xlink:href="#SVGID_00000031895319650723408660000002834016536684048262_"  style="overflow:visible;"/>
		</clipPath>
	</g>
	<g>
		<defs>
			<polyline id="SVGID_00000024695102611445877280000002838775266594330502_" points="858.6,677.9 858.6,1377.9 158.6,1377.9 			"/>
		</defs>
		<clipPath id="SVGID_00000139293009887843941120000011363156205327236251_">
			<use xlink:href="#SVGID_00000024695102611445877280000002838775266594330502_"  style="overflow:visible;"/>
		</clipPath>
	</g>
	<g>
		<defs>
			<polyline id="SVGID_00000015318057268234811740000007961350161524563080_" points="872.7,677.9 872.7,1377.9 172.7,1377.9 			"/>
		</defs>
		<clipPath id="SVGID_00000011745177100963996980000011718860919518122173_">
			<use xlink:href="#SVGID_00000015318057268234811740000007961350161524563080_"  style="overflow:visible;"/>
		</clipPath>
	</g>
	<g>
		<defs>
			<polyline id="SVGID_00000159433301571568026820000013543061277985066407_" points="893.7,677.9 893.7,1377.9 193.7,1377.9 			"/>
		</defs>
		<clipPath id="SVGID_00000088842309450039527690000007264359198645053596_">
			<use xlink:href="#SVGID_00000159433301571568026820000013543061277985066407_"  style="overflow:visible;"/>
		</clipPath>
	</g>
	<g>
		<defs>
			<polyline id="SVGID_00000087409464097911691410000013987460151134772411_" points="923.9,677.9 923.9,1377.9 223.9,1377.9 			"/>
		</defs>
		<clipPath id="SVGID_00000063618423168921155860000000171728871496341919_">
			<use xlink:href="#SVGID_00000087409464097911691410000013987460151134772411_"  style="overflow:visible;"/>
		</clipPath>
	</g>
	<g>
		<defs>
			<polyline id="SVGID_00000076596037205162904050000001582625246058069178_" points="948.6,677.9 948.6,1377.9 248.6,1377.9 			"/>
		</defs>
		<clipPath id="SVGID_00000017478139922039849720000002614999649553826749_">
			<use xlink:href="#SVGID_00000076596037205162904050000001582625246058069178_"  style="overflow:visible;"/>
		</clipPath>
	</g>
	<g>
		<defs>
			<polyline id="SVGID_00000137096598656779573710000018296253036073638275_" points="968.8,677.9 968.8,1377.9 268.8,1377.9 			"/>
		</defs>
		<clipPath id="SVGID_00000072981229623977168350000000618074763798296456_">
			<use xlink:href="#SVGID_00000137096598656779573710000018296253036073638275_"  style="overflow:visible;"/>
		</clipPath>
	</g>
	<g>
		<defs>
			<polyline id="SVGID_00000120552075256014723670000008640695596835660213_" points="989.8,677.9 989.8,1377.9 289.8,1377.9 			"/>
		</defs>
		<clipPath id="SVGID_00000134227564895761106190000014784072825287568526_">
			<use xlink:href="#SVGID_00000120552075256014723670000008640695596835660213_"  style="overflow:visible;"/>
		</clipPath>
	</g>
	<g>
		<defs>
			<polyline id="SVGID_00000093856469858026229240000016116874434582165121_" points="1042.6,677.9 1042.6,1377.9 342.6,1377.9 			
				"/>
		</defs>
		<clipPath id="SVGID_00000140709993243362236060000002558532923448922500_">
			<use xlink:href="#SVGID_00000093856469858026229240000016116874434582165121_"  style="overflow:visible;"/>
		</clipPath>
	</g>
	<g>
		<defs>
			<polyline id="SVGID_00000042016633245804511300000000491339944028394113_" points="1057.2,677.9 1057.2,1377.9 357.2,1377.9 			
				"/>
		</defs>
		<clipPath id="SVGID_00000106867021856798014000000016602411128971353004_">
			<use xlink:href="#SVGID_00000042016633245804511300000000491339944028394113_"  style="overflow:visible;"/>
		</clipPath>
	</g>
	<g>
		<defs>
			<polyline id="SVGID_00000087392271002783302160000011008943665641166988_" points="1087.5,677.9 1087.5,1377.9 387.5,1377.9 			
				"/>
		</defs>
		<clipPath id="SVGID_00000082336366091427880940000004950876479586740394_">
			<use xlink:href="#SVGID_00000087392271002783302160000011008943665641166988_"  style="overflow:visible;"/>
		</clipPath>
	</g>
	<g>
		<defs>
			<polyline id="SVGID_00000050647081942642723070000007150880932939706255_" points="1125,677.9 1125,1377.9 425,1377.9 			"/>
		</defs>
		<clipPath id="SVGID_00000170246979271883669570000015064890760555690624_">
			<use xlink:href="#SVGID_00000050647081942642723070000007150880932939706255_"  style="overflow:visible;"/>
		</clipPath>
	</g>
</g>
</svg>
