<?xml version="1.0" encoding="utf-8"?>
<!-- Generator: Adobe Illustrator 27.0.1, SVG Export Plug-In . SVG Version: 6.00 Build 0)  -->
<svg version="1.1" id="Layer_1" xmlns="http://www.w3.org/2000/svg" xmlns:xlink="http://www.w3.org/1999/xlink" x="0px" y="0px"
	 viewBox="0 0 700 700" style="enable-background:new 0 0 700 700;" xml:space="preserve">
<style type="text/css">
	.st0{fill-rule:evenodd;clip-rule:evenodd;}
</style>
<g>
	<path class="st0" d="M569.2,372c4.2,0,7.5,3.4,7.5,7.6s-3.4,7.5-7.5,7.5H305.3c-3.5,0-6.5-2.4-7.4-5.7l-79.3-243.9L117,111.1
		c-4.1-1.1-6.5-5.2-5.4-9.2c1.1-4.1,5.2-6.5,9.2-5.4l105.3,27.3c2.6,0.5,4.8,2.4,5.7,5.1l21.7,66.8h335.1l-45.2,139H298.7l12.1,37.3
		H569.2z M501.8,402.9c19,0,34.4,15.4,34.4,34.4s-15.4,34.4-34.4,34.4c-19,0-34.4-15.4-34.4-34.4
		C467.5,418.3,482.9,402.9,501.8,402.9z M364.4,402.9c19,0,34.4,15.4,34.4,34.4s-15.4,34.4-34.4,34.4S330,456.3,330,437.3
		S345.4,402.9,364.4,402.9z"/>
</g>
</svg>
