<?xml version="1.0" encoding="utf-8"?>
<!-- Generator: Adobe Illustrator 27.0.1, SVG Export Plug-In . SVG Version: 6.00 Build 0)  -->
<svg version="1.1" id="Layer_1" xmlns="http://www.w3.org/2000/svg" xmlns:xlink="http://www.w3.org/1999/xlink" x="0px" y="0px"
	 viewBox="0 0 48 48" style="enable-background:new 0 0 48 48;" xml:space="preserve">
<style type="text/css">
	.st0{fill:#FF0054;}
</style>
<path class="st0" d="M38.4,21.7V16c-2.7,0-4.7-0.7-6-2.1c-1.3-1.6-2.1-3.6-2.1-5.6V7.9l-5.4-0.1v23.1c-0.5,2.7-3.1,4.5-5.8,4
	c-2.7-0.5-4.5-3.1-4-5.8c0.5-2.7,3.1-4.5,5.8-4c0.3,0,0.5,0.1,0.8,0.2v-5.5c-0.6-0.1-1.1-0.1-1.7-0.1c-5.7,0-10.4,4.6-10.4,10.4
	S14.2,40.3,20,40.3s10.4-4.6,10.4-10.4c0-0.4,0-0.8-0.1-1.3v-9.1C32.7,21,35.5,21.8,38.4,21.7z"/>
</svg>
