<?xml version="1.0" encoding="utf-8"?>
<!-- Generator: Adobe Illustrator 27.0.1, SVG Export Plug-In . SVG Version: 6.00 Build 0)  -->
<svg version="1.1" id="Layer_1" xmlns="http://www.w3.org/2000/svg" xmlns:xlink="http://www.w3.org/1999/xlink" x="0px" y="0px"
	 viewBox="0 0 841.89 1190.55" style="enable-background:new 0 0 841.89 1190.55;" xml:space="preserve">
<style type="text/css">
	.st0{fill-rule:evenodd;clip-rule:evenodd;fill:#E61F57;}
</style>
<g>
	<path class="st0" d="M647.65,546.63c4.2,0,7.5,3.4,7.5,7.6s-3.4,7.5-7.5,7.5h-263.9c-3.5,0-6.5-2.4-7.4-5.7l-79.3-243.9
		l-101.6-26.4c-4.1-1.1-6.5-5.2-5.4-9.2c1.1-4.1,5.2-6.5,9.2-5.4l105.3,27.3c2.6,0.5,4.8,2.4,5.7,5.1l21.7,66.8h335.1l-45.2,139
		h-244.7l12.1,37.3H647.65z M580.25,577.53c19,0,34.4,15.4,34.4,34.4s-15.4,34.4-34.4,34.4s-34.4-15.4-34.4-34.4
		C545.95,592.93,561.35,577.53,580.25,577.53z M442.85,577.53c19,0,34.4,15.4,34.4,34.4s-15.4,34.4-34.4,34.4s-34.4-15.4-34.4-34.4
		S423.85,577.53,442.85,577.53z"/>
</g>
</svg>
