<?xml version="1.0" encoding="utf-8"?>
<!-- Generator: Adobe Illustrator 27.0.1, SVG Export Plug-In . SVG Version: 6.00 Build 0)  -->
<svg version="1.1" id="Layer_1" xmlns="http://www.w3.org/2000/svg" xmlns:xlink="http://www.w3.org/1999/xlink" x="0px" y="0px"
	 viewBox="0 0 700 700" style="enable-background:new 0 0 700 700;" xml:space="preserve">
<style type="text/css">
	.st0{fill-rule:evenodd;clip-rule:evenodd;fill:#5A4F8C;}
</style>
<g>
	<path class="st0" d="M304.8,235.6v49.2c0,13.6-11,24.6-24.6,24.6c-13.6,0-24.6-11-24.6-24.6v-49.2h-49.2c-13.6,0-24.6-11-24.6-24.6
		s11-24.6,24.6-24.6h49.2v-49.2c0-13.6,11-24.6,24.6-24.6c13.6,0,24.6,11,24.6,24.6v49.2H354c13.6,0,24.6,11,24.6,24.6
		s-11,24.6-24.6,24.6L304.8,235.6z M458.4,319.7l151.9,151.9c19.2,19.2,19.2,50.4,0,69.6c-19.2,19.2-50.3,19.2-69.6,0L388.9,389.2
		c-80.5,49.2-187.1,39-256.7-30.7c-81.6-81.6-81.6-214,0-295.6c81.6-81.6,214-81.6,295.6,0C497.4,132.6,507.7,239.2,458.4,319.7
		L458.4,319.7z M166.9,323.8c-62.4-62.4-62.4-163.6,0-226.1c62.4-62.4,163.6-62.4,226.1,0c62.4,62.4,62.4,163.6,0,226.1
		C330.6,386.2,229.4,386.2,166.9,323.8z"/>
	<g>
		<defs>
			<polyline id="SVGID_1_" points="864.1,652.3 864.1,1352.3 164.1,1352.3 			"/>
		</defs>
		<clipPath id="SVGID_00000118368088261303083920000015649210375234042250_">
			<use xlink:href="#SVGID_1_"  style="overflow:visible;"/>
		</clipPath>
	</g>
	<g>
		<defs>
			<polyline id="SVGID_00000073679487957078494760000011964665898717800596_" points="1014.4,652.3 1014.4,1352.3 314.4,1352.3 			
				"/>
		</defs>
		<clipPath id="SVGID_00000149359141005474651360000014942995179916606141_">
			<use xlink:href="#SVGID_00000073679487957078494760000011964665898717800596_"  style="overflow:visible;"/>
		</clipPath>
	</g>
	<g>
		<defs>
			<polyline id="SVGID_00000124148142799060897080000013086673082003267744_" points="1056.4,652.3 1056.4,1352.3 356.4,1352.3 			
				"/>
		</defs>
		<clipPath id="SVGID_00000144336187400533742020000000711573059674011532_">
			<use xlink:href="#SVGID_00000124148142799060897080000013086673082003267744_"  style="overflow:visible;"/>
		</clipPath>
	</g>
	<g>
		<defs>
			<polyline id="SVGID_00000135683373990527840040000003344714259784660663_" points="783.4,683.1 783.4,1383.1 83.4,1383.1 			"/>
		</defs>
		<clipPath id="SVGID_00000155108376740087384200000013601870812157459631_">
			<use xlink:href="#SVGID_00000135683373990527840040000003344714259784660663_"  style="overflow:visible;"/>
		</clipPath>
	</g>
	<g>
		<defs>
			<polyline id="SVGID_00000128451383997701032570000006149307617558269090_" points="862.5,683.1 862.5,1383.1 162.5,1383.1 			"/>
		</defs>
		<clipPath id="SVGID_00000036209529642543494420000017290701461880543673_">
			<use xlink:href="#SVGID_00000128451383997701032570000006149307617558269090_"  style="overflow:visible;"/>
		</clipPath>
	</g>
	<g>
		<defs>
			<polyline id="SVGID_00000106859179092284668310000008098288520688878748_" points="899.1,683.1 899.1,1383.1 199.1,1383.1 			"/>
		</defs>
		<clipPath id="SVGID_00000150068672511027731600000008146276944866882451_">
			<use xlink:href="#SVGID_00000106859179092284668310000008098288520688878748_"  style="overflow:visible;"/>
		</clipPath>
	</g>
	<g>
		<defs>
			<polyline id="SVGID_00000040574007948549787950000010169577081144799166_" points="956.4,683.1 956.4,1383.1 256.4,1383.1 			"/>
		</defs>
		<clipPath id="SVGID_00000005243845611710772960000015631781310338139838_">
			<use xlink:href="#SVGID_00000040574007948549787950000010169577081144799166_"  style="overflow:visible;"/>
		</clipPath>
	</g>
	<g>
		<defs>
			<polyline id="SVGID_00000144329813727828497870000001405445730420005270_" points="977.6,683.1 977.6,1383.1 277.6,1383.1 			"/>
		</defs>
		<clipPath id="SVGID_00000010996030272154276960000018168350873376430507_">
			<use xlink:href="#SVGID_00000144329813727828497870000001405445730420005270_"  style="overflow:visible;"/>
		</clipPath>
	</g>
	<g>
		<defs>
			<polyline id="SVGID_00000132050471785029037840000008789302752157750446_" points="999.5,683.1 999.5,1383.1 299.5,1383.1 			"/>
		</defs>
		<clipPath id="SVGID_00000157274136173020940030000017704397527883810238_">
			<use xlink:href="#SVGID_00000132050471785029037840000008789302752157750446_"  style="overflow:visible;"/>
		</clipPath>
	</g>
	<g>
		<defs>
			<polyline id="SVGID_00000061473451783517065310000010921532849498723503_" points="1054.6,683.1 1054.6,1383.1 354.6,1383.1 			
				"/>
		</defs>
		<clipPath id="SVGID_00000044146374128555881480000002575192043856160130_">
			<use xlink:href="#SVGID_00000061473451783517065310000010921532849498723503_"  style="overflow:visible;"/>
		</clipPath>
	</g>
	<g>
		<defs>
			<polyline id="SVGID_00000091729881586722576720000002753967417378795146_" points="1069.8,683.1 1069.8,1383.1 369.8,1383.1 			
				"/>
		</defs>
		<clipPath id="SVGID_00000019661850410449686270000001214043356980543106_">
			<use xlink:href="#SVGID_00000091729881586722576720000002753967417378795146_"  style="overflow:visible;"/>
		</clipPath>
	</g>
	<g>
		<defs>
			<polyline id="SVGID_00000175288897892292473630000016460688380249272713_" points="1101.5,683.1 1101.5,1383.1 401.5,1383.1 			
				"/>
		</defs>
		<clipPath id="SVGID_00000042706735664796969090000009186717467627703706_">
			<use xlink:href="#SVGID_00000175288897892292473630000016460688380249272713_"  style="overflow:visible;"/>
		</clipPath>
	</g>
	<g>
		<defs>
			<polyline id="SVGID_00000152965501695370496500000015025750940751119025_" points="1140.6,683.1 1140.6,1383.1 440.6,1383.1 			
				"/>
		</defs>
		<clipPath id="SVGID_00000076595068276688017950000002349900533121387710_">
			<use xlink:href="#SVGID_00000152965501695370496500000015025750940751119025_"  style="overflow:visible;"/>
		</clipPath>
	</g>
</g>
</svg>
